<svg width="40" height="40" viewBox="0 0 40 40" fill="none" xmlns="http://www.w3.org/2000/svg">
<path d="M19.822 2.5C23.2505 2.5 26.4216 3.16666 29.3351 4.49997C32.2486 5.83327 34.552 7.6463 36.245 9.93906C37.9381 12.2318 38.7847 14.7326 38.7847 17.4416C38.7847 20.1505 37.9381 22.6548 36.245 24.9547C34.552 27.2545 32.2521 29.071 29.3457 30.4043C26.4392 31.7376 23.2646 32.4043 19.822 32.4043C18.7356 32.4043 17.6139 32.3266 16.457 32.1715C11.4341 35.6564 8.76047 37.4201 8.43594 37.4623C8.28078 37.5188 8.13266 37.5118 7.99156 37.4412C7.93508 37.3989 7.89273 37.3424 7.86453 37.2719C7.83633 37.2013 7.82219 37.1379 7.82219 37.0814V36.9968C7.90688 36.4465 8.54883 34.1538 9.74813 30.1186C7.02505 28.7641 4.86284 26.9688 3.26145 24.7324C1.66007 22.4962 0.859375 20.0659 0.859375 17.4416C0.859375 14.7326 1.70592 12.2318 3.39902 9.93906C5.09211 7.6463 7.39542 5.83327 10.309 4.49997C13.2225 3.16666 16.3935 2.5 19.822 2.5ZM10.2137 21.3991V14.9019H11.8856C12.1114 14.9019 12.3477 14.8208 12.5946 14.6585C12.8416 14.4963 12.965 14.2741 12.965 13.9919C12.965 13.7097 12.8521 13.4734 12.6264 13.2829C12.4006 13.0924 12.182 12.9972 11.9703 12.9972H6.46775C6.22789 12.9972 6.00215 13.0677 5.79051 13.2088C5.57888 13.3499 5.47305 13.5827 5.47305 13.9072C5.47305 14.2317 5.58593 14.4787 5.81167 14.648C6.03742 14.8173 6.29138 14.9019 6.57356 14.9019H8.24547V21.3991C8.24547 21.7519 8.33016 22.0411 8.49945 22.2669C8.66875 22.4926 8.90859 22.6055 9.21898 22.6055C9.52945 22.6055 9.77281 22.4785 9.94914 22.2245C10.1255 21.9705 10.2137 21.6955 10.2137 21.3991ZM19.3776 22.6055C19.8996 22.408 20.0619 21.9071 19.8644 21.1029C19.8079 20.9195 19.4093 19.8225 18.6686 17.8119C17.9279 15.8013 17.5011 14.655 17.3882 14.3728C17.0073 13.4557 16.4852 12.9972 15.8221 12.9972C15.1025 12.9972 14.5452 13.4557 14.1502 14.3728C14.0373 14.6127 13.607 15.7802 12.8591 17.8754C12.1114 19.9706 11.7234 21.0464 11.6952 21.1029C11.5964 21.2298 11.5717 21.4627 11.6211 21.8013C11.6705 22.1399 11.8222 22.3727 12.0761 22.4997C12.3583 22.6266 12.6334 22.6408 12.9015 22.542C13.1696 22.4432 13.353 22.2951 13.4517 22.0976L13.9597 20.7008H17.6422C17.7973 21.2087 17.9102 21.5402 17.9808 21.6955C18.0513 21.8366 18.1289 21.9777 18.2136 22.1187C18.2982 22.2598 18.4534 22.3973 18.6792 22.5314C18.9049 22.6655 19.1377 22.6902 19.3776 22.6055ZM25.0706 22.6055C25.3669 22.6055 25.6385 22.5138 25.8854 22.3304C26.1323 22.147 26.2558 21.9 26.2558 21.5896C26.2558 21.2792 26.1429 21.0359 25.9172 20.8595C25.6914 20.6831 25.4092 20.5949 25.0706 20.5949H22.7214V14.2035C22.7214 13.9072 22.6333 13.6321 22.4569 13.3781C22.2805 13.1241 22.0372 12.9972 21.7267 12.9972C21.4163 12.9972 21.1765 13.1101 21.0072 13.3358C20.8379 13.5616 20.7532 13.8508 20.7532 14.2035V21.3991C20.7532 21.7519 20.8379 22.0411 21.0072 22.2669C21.1765 22.4926 21.4163 22.6055 21.7267 22.6055C21.7409 22.6055 21.7655 22.602 21.8009 22.5949C21.8361 22.5878 21.8608 22.5843 21.8749 22.5843C21.889 22.5843 21.9137 22.5878 21.949 22.5949C21.9842 22.602 22.0089 22.6055 22.023 22.6055H25.0706ZM33.4091 22.4573C33.649 22.2316 33.7689 21.9741 33.7689 21.6848C33.7689 21.3956 33.6772 21.1381 33.4938 20.9124C33.4091 20.7854 32.5202 19.5932 30.8271 17.3357C31.6455 16.5033 32.4709 15.6709 33.3033 14.8384C33.5149 14.6268 33.6454 14.3763 33.6948 14.0871C33.7442 13.7979 33.663 13.5262 33.4514 13.2723C33.2116 13.0466 32.9541 12.9548 32.6789 12.9972C32.4038 13.0395 32.1463 13.1806 31.9065 13.4205C31.8641 13.4628 31.6807 13.6497 31.3562 13.9813C31.0317 14.3129 30.612 14.7397 30.097 15.2617C29.582 15.7838 29.127 16.2493 28.732 16.6585V14.2035C28.732 13.9072 28.6437 13.6321 28.4673 13.3781C28.291 13.1241 28.0477 12.9972 27.7373 12.9972C27.4268 12.9972 27.187 13.1101 27.0177 13.3358C26.8484 13.5616 26.7637 13.8508 26.7637 14.2035V21.3991C26.7637 21.7519 26.8484 22.0411 27.0177 22.2669C27.187 22.4926 27.4268 22.6055 27.7373 22.6055C28.0477 22.6055 28.291 22.4785 28.4673 22.2245C28.6437 21.9705 28.732 21.6955 28.732 21.3991V19.4733C28.7884 19.4168 28.8941 19.3075 29.0494 19.1452C29.2046 18.983 29.3316 18.8524 29.4303 18.7537C30.3616 20.0235 31.194 21.1452 31.9277 22.1187C32.1252 22.3868 32.3545 22.5596 32.6155 22.6373C32.8765 22.7148 33.141 22.6548 33.4091 22.4573ZM14.5311 18.796L15.8221 15.0077L17.0919 18.796H14.5311Z" fill="white"/>
</svg>
